# xmcd
#
# Track frame offsets:
#	150
#	16972
#	28625
#	41422
#	55800
#	69047
#	83607
#	96462
#	111660
#	128610
#	148610
#	166970
#	184735
#	203155
#	215420
#	233742
#	248740
#	262832
#	276485
#
# Disc length: 3825
#
# Revision: 2
# Processed by: cddbd v1.5.1PL0 Copyright (c) Steve Scherf et al.
# Submitted via: CDex 1.50beta9
# Normalized: r1:TDELIM( - )
#
DISCID=060eef13
DTITLE=Various Artist - CDX Volume 182 - March 1998
DYEAR=1998
DGENRE=Country
TTITLE0=Ty Herndon - A Man Holdin' On
TTITLE1=Ranger Doug - Amber Eyes
TTITLE2=Eddy Raven - Bayou Boys
TTITLE3=Tim Briggs - Couch Potato
TTITLE4=Bill and Bonnie Hearne - Invitation To The Blues
TTITLE5=Hal Ketchum - I Saw The Light
TTITLE6=Eddy Raven - Johnny's Got A Pistol
TTITLE7=The Ranch - Just Some Love
TTITLE8=Kevin Sharp - Love Is All That Really Matters
TTITLE9=Sammy Kershaw and Terri Clark - Love Of My Life
TTITLE10=John Michael Montgomery - Love Working On You
TTITLE11=Sammy Kershaw - Matches
TTITLE12=Keith Harling - Papa Bear
TTITLE13=Tammy Wynette - Stand By Your Man
TTITLE14=Kenny Chesney - That's Why I'm Here
TTITLE15=Seminole - What Am I Gonna Do (With All This Love)
TTITLE16=Shane Stockton - What If I'm Right
TTITLE17=Lee Greenwood - Who's That Knockin' On My Heart
TTITLE18=Duane Stailey - In The Living Room Camping Out
EXTD=YEAR: 1998
EXTT0=
EXTT1=
EXTT2=
EXTT3=
EXTT4=
EXTT5=
EXTT6=
EXTT7=
EXTT8=
EXTT9=
EXTT10=
EXTT11=
EXTT12=
EXTT13=
EXTT14=
EXTT15=
EXTT16=
EXTT17=
EXTT18=
PLAYORDER=
